<svg viewBox="0 0 100 100" fill="none" xmlns="http://www.w3.org/2000/svg">
  <rect width="100" height="100" rx="24" fill="#FFFFFF" />
  <path 
    d="M 68 25 L 82 40 L 72 40 L 72 55 L 48 55 L 48 68 L 60 68 L 46 82 L 32 68 L 40 68 L 40 47 L 64 47 L 64 33 L 52 33 L 68 25 Z" 
    fill="url(#blueGrad)" 
  />
  <path 
    d="M 32 75 L 18 60 L 28 60 L 28 45 L 52 45 L 52 32 L 40 32 L 54 18 L 68 32 L 60 32 L 60 53 L 36 53 L 36 67 L 48 67 L 32 75 Z" 
    fill="url(#blueGrad)" 
  />
  <defs>
    <linearGradient id="blueGrad" x1="18" y1="82" x2="82" y2="18" gradientUnits="userSpaceOnUse">
      <stop stop-color="#3B82F6" />
      <stop offset="1" stop-color="#2563EB" />
    </linearGradient>
  </defs>
</svg>
